<svg width="438" height="60" viewBox="0 0 438 60" fill="none" xmlns="http://www.w3.org/2000/svg">
<g clip-path="url(#clip0_65_17390)">
<path d="M24.0848 52.6696C32.4159 52.6696 39.1696 45.9159 39.1696 37.5848C39.1696 29.2537 32.4159 22.5 24.0848 22.5C15.7537 22.5 9 29.2537 9 37.5848C9 45.9159 15.7537 52.6696 24.0848 52.6696Z" fill="#FFD500"/>
<path d="M60 0H0V60H60V0Z" fill="white" fill-opacity="0.01"/>
<path fill-rule="evenodd" clip-rule="evenodd" d="M3.875 30C3.875 15.5716 15.5716 3.875 30 3.875C44.4284 3.875 56.125 15.5716 56.125 30C56.125 44.4284 44.4284 56.125 30 56.125C15.5716 56.125 3.875 44.4284 3.875 30ZM30 6.125C16.8142 6.125 6.125 16.8142 6.125 30C6.125 43.1858 16.8142 53.875 30 53.875C43.1858 53.875 53.875 43.1858 53.875 30C53.875 16.8142 43.1858 6.125 30 6.125Z" fill="#333333"/>
<path fill-rule="evenodd" clip-rule="evenodd" d="M30.0105 13.875C30.6318 13.8751 31.1355 14.3788 31.1354 15.0001L31.134 29.5451L41.4037 39.8148C41.843 40.2541 41.843 40.9664 41.4037 41.4057C40.9643 41.8451 40.252 41.8451 39.8127 41.4057L29.2134 30.8065C29.0024 30.5955 28.8839 30.3093 28.8839 30.0109L28.8854 14.9999C28.8855 14.3786 29.3892 13.8749 30.0105 13.875Z" fill="#333333"/>
</g>
<path d="M88.9552 16.6488C88.9552 16.0264 88.5722 15.6435 87.8062 15.6435H68.6093L69.5189 20.2871H80.0509L72.5827 27.3244L73.3487 31.968C74.354 31.7287 75.5508 31.5372 76.5083 31.5372C76.5562 31.5372 76.5562 31.5372 76.5562 31.5372C80.5296 31.585 83.9764 32.6861 83.9764 37.0425C83.9285 41.2074 80.4817 42.8351 76.8913 42.8351C74.8327 42.7872 70.9551 41.5904 69.4231 40.7287L70.237 46.0425C72.487 47.0479 75.3593 47.4787 77.37 47.4787C83.5934 47.4787 88.5722 43.4096 88.5722 36.9468C88.5722 36.8989 88.5722 36.8989 88.5722 36.8031C88.5243 32.2552 85.8434 27.851 79.0934 27.3244L88.1892 19.1382L88.8115 17.3669C88.9073 17.1275 88.9552 16.8882 88.9552 16.6488ZM116.185 31.7765C116.185 21.1009 113.409 15.3084 105.222 15.3084C97.0363 15.3084 94.2597 21.1009 94.2597 31.7765C94.2597 40.9681 96.8448 47.4309 105.318 47.4787C113.84 47.5266 116.185 40.8723 116.185 31.7765ZM111.494 31.7765C111.494 40.8723 109.34 42.883 105.318 42.883C101.249 42.883 98.9033 40.7287 98.9033 31.7765C98.9033 21.3882 101.441 19.9041 105.222 19.9041C109.004 19.9041 111.542 21.3882 111.542 31.7765H111.494Z" fill="#1C1C1B"/>
<path d="M136.616 46.2266L136 33.1574L133.333 32.6444L129.496 42.3284L125.68 32.6444L123.075 33.1779L122.397 46.2266H124.408L124.859 35.9271H124.962L128.737 45.3033H130.276L134.051 35.9271H134.154L134.605 46.2266H136.616ZM141.303 33.7318C141.303 33.1368 140.811 32.6444 140.195 32.6444C139.58 32.6444 139.087 33.1368 139.087 33.7523C139.087 34.3473 139.58 34.8397 140.195 34.8397C140.811 34.8397 141.303 34.3473 141.303 33.7318ZM141.119 46.2266V36.8504L139.252 37.3223V46.2266H141.119ZM151.635 46.2266V39.9689C151.635 38.1224 150.835 36.8504 148.68 36.8504C146.936 36.8504 145.131 37.8762 143.9 38.9841V46.2266H145.767V39.7843C146.506 39.1893 147.757 38.6764 148.578 38.6764C149.255 38.6764 149.768 39.0867 149.768 40.0305V46.2266H151.635ZM161.846 46.2266V36.8504L159.958 37.3223V43.5799C159.712 44.1338 158.666 44.6468 157.763 44.6468C156.86 44.6468 156.286 44.1749 156.286 43.2311V36.8504L154.419 37.3017V43.2311C154.419 45.0161 155.239 46.4317 157.455 46.4317C158.337 46.4317 159.363 46.1445 159.979 45.5905V46.2266H161.846ZM168.864 37.1992H166.504V34.573L164.637 35.0859V43.9902C164.637 45.7547 165.889 46.4317 167.243 46.4317C167.571 46.4317 167.92 46.3907 168.248 46.3291L167.858 44.5032C167.674 44.5647 167.448 44.6057 167.222 44.6057C166.812 44.6057 166.504 44.4621 166.504 43.9902V39.0046H168.022L168.864 37.1992ZM172.88 33.7318C172.88 33.1368 172.387 32.6444 171.772 32.6444C171.156 32.6444 170.664 33.1368 170.664 33.7523C170.664 34.3473 171.156 34.8397 171.772 34.8397C172.387 34.8397 172.88 34.3473 172.88 33.7318ZM172.695 46.2266V36.8504L170.828 37.3223V46.2266H172.695Z" fill="#1C1C1B"/>
<path d="M231.025 54.75H253.338C254.218 54.75 254.931 54.112 254.931 53.325V33.375L247.76 26.25H231.025C230.145 26.25 229.431 26.888 229.431 27.675V53.325C229.431 54.112 230.145 54.75 231.025 54.75Z" fill="#FFD401"/>
<path fill-rule="evenodd" clip-rule="evenodd" d="M228.556 7.5C228.556 5.49797 230.179 3.875 232.181 3.875H258.431C258.75 3.875 259.054 4.01036 259.268 4.24741L270.518 16.7474C270.704 16.954 270.806 17.2221 270.806 17.5V52.5C270.806 54.5021 269.183 56.125 267.181 56.125H232.181C230.179 56.125 228.556 54.5021 228.556 52.5V7.5ZM232.181 6.125C231.422 6.125 230.806 6.74061 230.806 7.5V52.5C230.806 53.2594 231.422 53.875 232.181 53.875H267.181C267.941 53.875 268.556 53.2594 268.556 52.5V17.9317L257.93 6.125H232.181Z" fill="#333333"/>
<path fill-rule="evenodd" clip-rule="evenodd" d="M243.556 29.375C243.556 25.7753 246.178 22.625 249.681 22.625C253.185 22.625 255.806 25.7753 255.806 29.375C255.806 32.5776 253.731 35.4245 250.806 36.0136V38.75C250.806 39.3713 250.303 39.875 249.681 39.875C249.06 39.875 248.556 39.3713 248.556 38.75V35C248.556 34.3787 249.06 33.875 249.681 33.875C251.701 33.875 253.556 31.9885 253.556 29.375C253.556 26.7615 251.701 24.875 249.681 24.875C247.662 24.875 245.806 26.7615 245.806 29.375C245.806 29.9963 245.303 30.5 244.681 30.5C244.06 30.5 243.556 29.9963 243.556 29.375Z" fill="#333333"/>
<path d="M251.524 45.625C251.524 46.6427 250.699 47.4677 249.681 47.4677C248.664 47.4677 247.839 46.6427 247.839 45.625C247.839 44.6073 248.664 43.7823 249.681 43.7823C250.699 43.7823 251.524 44.6073 251.524 45.625Z" fill="#333333" stroke="#1C1C1B" stroke-width="2.5646"/>
<path fill-rule="evenodd" clip-rule="evenodd" d="M257.181 3.875C257.803 3.875 258.306 4.37868 258.306 5V16.375H269.681C270.303 16.375 270.806 16.8787 270.806 17.5C270.806 18.1213 270.303 18.625 269.681 18.625H257.181C256.56 18.625 256.056 18.1213 256.056 17.5V5C256.056 4.37868 256.56 3.875 257.181 3.875Z" fill="#333333"/>
<path d="M308.637 16.6488C308.637 16.0264 308.254 15.6435 307.488 15.6435H288.291L289.2 20.2871H299.732L292.264 27.3244L293.03 31.968C294.035 31.7287 295.232 31.5372 296.19 31.5372C296.238 31.5372 296.238 31.5372 296.238 31.5372C300.211 31.585 303.658 32.6861 303.658 37.0425C303.61 41.2074 300.163 42.8351 296.573 42.8351C294.514 42.7872 290.636 41.5904 289.105 40.7287L289.918 46.0425C292.168 47.0479 295.041 47.4787 297.051 47.4787C303.275 47.4787 308.254 43.4096 308.254 36.9468C308.254 36.8989 308.254 36.8989 308.254 36.8031C308.206 32.2552 305.525 27.851 298.775 27.3244L307.871 19.1382L308.493 17.3669C308.589 17.1275 308.637 16.8882 308.637 16.6488ZM335.867 31.7765C335.867 21.1009 333.09 15.3084 324.904 15.3084C316.718 15.3084 313.941 21.1009 313.941 31.7765C313.941 40.9681 316.526 47.4309 325 47.4787C333.521 47.5266 335.867 40.8723 335.867 31.7765ZM331.175 31.7765C331.175 40.8723 329.021 42.883 325 42.883C320.93 42.883 318.585 40.7287 318.585 31.7765C318.585 21.3882 321.122 19.9041 324.904 19.9041C328.686 19.9041 331.223 21.3882 331.223 31.7765H331.175Z" fill="#1C1C1B"/>
<path d="M362.06 39.6626C362.06 35.9696 360.172 32.7895 354.981 32.7895C353.545 32.7895 352.13 32.9741 350.714 33.1793V46.31C351.76 46.4742 352.868 46.5768 353.915 46.5768C357.997 46.5768 362.06 44.9149 362.06 39.6626ZM359.988 39.6626C359.988 43.4992 357.095 44.5866 354.099 44.5866C353.648 44.5866 353.155 44.5456 352.704 44.5046V34.9027C353.463 34.8206 354.202 34.7796 354.961 34.7796C358.839 34.8206 360.008 36.8313 360.008 39.6831L359.988 39.6626ZM372.574 41.8579C372.554 39.1291 371.487 36.9954 368.389 36.9954C365.311 36.9954 364.121 38.9035 364.121 41.8168C364.121 44.6277 365.414 46.5768 368.409 46.5768C370.953 46.5768 372.574 44.8533 372.574 41.8579ZM370.707 41.7143C370.707 43.3146 370.297 44.7302 368.389 44.7097C366.481 44.6892 365.988 43.6018 365.988 41.7963C365.988 39.56 366.686 38.8624 368.409 38.8624C370.03 38.8624 370.707 39.7036 370.707 41.7348V41.7143ZM387.838 46.3716V40.2371C387.838 38.3495 387.263 36.9954 384.883 36.9954C383.714 36.9954 382.421 37.5494 381.765 38.1443C381.272 37.4057 380.493 36.9954 379.364 36.9954C377.62 36.9954 376.123 38.0212 374.892 39.1291V46.3716H376.759V39.9293C377.497 39.2317 378.482 38.8214 379.364 38.8214C380.103 38.8214 380.452 39.0881 380.452 40.2165V46.3716H382.319V40.196V39.9088C383.057 39.2317 384.022 38.8214 384.883 38.8214C385.622 38.8214 385.971 39.0881 385.971 40.2165V46.3716H387.838ZM397.534 46.3716V40.2371C397.534 38.1238 396.775 36.9954 394.292 36.9954C393.266 36.9954 391.502 37.5288 390.661 37.9802L391.01 39.601C392.261 39.0676 393.41 38.7804 394.292 38.7804C395.154 38.7804 395.708 38.9445 395.708 39.9088V40.4012L393.205 40.7089C391.379 40.9141 390.004 41.9194 390.004 43.7249C390.004 45.1816 391.071 46.5768 393.205 46.5768C394.149 46.5768 395.277 46.2485 395.708 45.4688V46.3716H397.534ZM395.708 42.0425C395.708 44.0121 394.723 44.8944 393.205 44.8944C392.282 44.8944 391.83 44.4225 391.83 43.6018C391.83 42.9453 392.323 42.4939 393.554 42.3298L395.708 42.0425ZM408.052 46.3716V40.114C408.052 38.2674 407.252 36.9954 405.098 36.9954C403.354 36.9954 401.548 38.0212 400.317 39.1291V46.3716H402.184V39.9293C402.923 39.3343 404.174 38.8214 404.995 38.8214C405.672 38.8214 406.185 39.2317 406.185 40.1755V46.3716H408.052ZM418.119 46.3716V32.7689L416.252 33.3024V37.3237C415.781 37.139 415.268 36.9954 414.693 36.9954C411.882 36.9954 410.323 39.1497 410.323 42.0425C410.323 44.3815 411.78 46.5768 414.57 46.5768C415.288 46.5768 415.965 46.269 416.252 45.7561V46.3716H418.119ZM416.252 43.2325C416.252 44.0737 415.514 44.7508 414.57 44.7508C413.113 44.7508 412.231 43.889 412.231 41.8784C412.231 40.1755 412.806 38.8214 414.714 38.8214C415.391 38.8214 415.883 38.965 416.252 39.3343V43.2325ZM426.31 40.0524C426.31 40.4833 426.146 40.8115 425.592 40.832L422.412 40.9757C422.514 39.8267 423.253 38.7804 424.607 38.7804C425.653 38.7804 426.31 39.4779 426.31 40.0524ZM428.157 40.6679C428.157 38.7804 427.069 36.9954 424.484 36.9954C422.535 36.9954 420.401 38.8009 420.401 41.7553C420.401 43.3556 420.791 44.5661 421.673 45.3868C422.514 46.1869 423.827 46.5768 425.756 46.5768C426.269 46.5768 426.761 46.5152 427.295 46.4742L427.459 44.7302C427.049 44.7713 426.659 44.8123 426.31 44.8123C424.648 44.8123 422.473 44.7302 422.391 42.617L426.577 42.3913C427.397 42.3503 428.157 41.7143 428.157 40.6679Z" fill="#1C1C1B"/>
<defs>
<clipPath id="clip0_65_17390">
<rect width="60" height="60" fill="white"/>
</clipPath>
</defs>
</svg>
