<svg width="60" height="60" viewBox="0 0 60 60" fill="none" xmlns="http://www.w3.org/2000/svg">
<g clip-path="url(#clip0_65_17238)">
<path d="M60 0H0V60H60V0Z" fill="white" fill-opacity="0.01"/>
<path d="M30.75 6.75V53.25L51.75 43.125L30.75 6.75Z" fill="#FFD401"/>
<path fill-rule="evenodd" clip-rule="evenodd" d="M30 3.875C30.4009 3.875 30.7716 4.08838 30.9729 4.4351L53.4729 43.1851C53.6288 43.4537 53.6668 43.7747 53.5779 44.0723C53.4889 44.3698 53.2809 44.6173 53.0031 44.7562L30.5031 56.0062C30.1864 56.1646 29.8136 56.1646 29.4969 56.0062L6.99689 44.7562C6.71912 44.6173 6.51112 44.3698 6.42215 44.0723C6.33319 43.7747 6.37117 43.4537 6.52712 43.1851L29.0271 4.4351C29.2284 4.08838 29.5991 3.875 30 3.875ZM9.0742 43.2793L30 53.7422L50.9258 43.2793L30 7.24043L9.0742 43.2793Z" fill="#333333"/>
<path fill-rule="evenodd" clip-rule="evenodd" d="M30 3.875C30.6213 3.875 31.125 4.37868 31.125 5V55C31.125 55.6213 30.6213 56.125 30 56.125C29.3787 56.125 28.875 55.6213 28.875 55V5C28.875 4.37868 29.3787 3.875 30 3.875Z" fill="#333333"/>
</g>
<defs>
<clipPath id="clip0_65_17238">
<rect width="60" height="60" fill="white"/>
</clipPath>
</defs>
</svg>
