<svg width="60" height="60" viewBox="0 0 60 60" fill="none" xmlns="http://www.w3.org/2000/svg">
<path d="M32.3348 54.9196C40.6659 54.9196 47.4196 48.1659 47.4196 39.8348C47.4196 31.5037 40.6659 24.75 32.3348 24.75C24.0037 24.75 17.25 31.5037 17.25 39.8348C17.25 48.1659 24.0037 54.9196 32.3348 54.9196Z" fill="#FFD500"/>
<path fill-rule="evenodd" clip-rule="evenodd" d="M30 16.125C19.5756 16.125 11.125 24.5756 11.125 35C11.125 45.4244 19.5756 53.875 30 53.875C40.4244 53.875 48.875 45.4244 48.875 35C48.875 24.5756 40.4244 16.125 30 16.125ZM8.875 35C8.875 23.333 18.333 13.875 30 13.875C41.667 13.875 51.125 23.333 51.125 35C51.125 46.667 41.667 56.125 30 56.125C18.333 56.125 8.875 46.667 8.875 35Z" fill="#333333"/>
<path fill-rule="evenodd" clip-rule="evenodd" d="M23.875 5C23.875 4.37868 24.3787 3.875 25 3.875H35C35.6213 3.875 36.125 4.37868 36.125 5C36.125 5.62132 35.6213 6.125 35 6.125H25C24.3787 6.125 23.875 5.62132 23.875 5Z" fill="#333333"/>
<path fill-rule="evenodd" clip-rule="evenodd" d="M30 3.875C30.6213 3.875 31.125 4.37868 31.125 5V15C31.125 15.6213 30.6213 16.125 30 16.125C29.3787 16.125 28.875 15.6213 28.875 15V5C28.875 4.37868 29.3787 3.875 30 3.875Z" fill="#333333"/>
<path fill-rule="evenodd" clip-rule="evenodd" d="M48.2955 15.4545C48.7348 15.8938 48.7348 16.6062 48.2955 17.0455L44.5455 20.7955C44.1062 21.2348 43.3938 21.2348 42.9545 20.7955C42.5152 20.3562 42.5152 19.6438 42.9545 19.2045L46.7045 15.4545C47.1438 15.0152 47.8562 15.0152 48.2955 15.4545Z" fill="#333333"/>
<path fill-rule="evenodd" clip-rule="evenodd" d="M30 26.375C30.6213 26.375 31.125 26.8787 31.125 27.5V35C31.125 35.6213 30.6213 36.125 30 36.125C29.3787 36.125 28.875 35.6213 28.875 35V27.5C28.875 26.8787 29.3787 26.375 30 26.375Z" fill="#333333"/>
<path fill-rule="evenodd" clip-rule="evenodd" d="M21.375 35C21.375 34.3787 21.8787 33.875 22.5 33.875H30C30.6213 33.875 31.125 34.3787 31.125 35C31.125 35.6213 30.6213 36.125 30 36.125H22.5C21.8787 36.125 21.375 35.6213 21.375 35Z" fill="#333333"/>
</svg>
