<svg width="60" height="60" viewBox="0 0 60 60" fill="none" xmlns="http://www.w3.org/2000/svg">
<g clip-path="url(#clip0_65_17201)">
<path d="M38.25 30.75C35.875 37.625 31.125 51.6 31.125 52.5L54 30.75H38.25Z" fill="#FFD401"/>
<path d="M21.75 29.25C24.125 22.375 28.875 8.4 28.875 7.5L6 29.25L21.75 29.25Z" fill="#FFD401"/>
<path d="M60 0H0V60H60V0Z" fill="white" fill-opacity="0.01"/>
<path d="M60 0H0V60H60V0Z" fill="white" fill-opacity="0.01"/>
<path fill-rule="evenodd" clip-rule="evenodd" d="M29.2045 4.2045C29.6438 3.76517 30.3562 3.76517 30.7955 4.2045L55.7955 29.2045C56.2348 29.6438 56.2348 30.3562 55.7955 30.7955L30.7955 55.7955C30.3562 56.2348 29.6438 56.2348 29.2045 55.7955L4.2045 30.7955C3.76517 30.3562 3.76517 29.6438 4.2045 29.2045L29.2045 4.2045ZM6.59099 30L30 53.409L53.409 30L30 6.59099L6.59099 30Z" fill="#333333"/>
<path fill-rule="evenodd" clip-rule="evenodd" d="M3.875 30C3.875 29.3787 4.37868 28.875 5 28.875H55C55.6213 28.875 56.125 29.3787 56.125 30C56.125 30.6213 55.6213 31.125 55 31.125H5C4.37868 31.125 3.875 30.6213 3.875 30Z" fill="#333333"/>
<path fill-rule="evenodd" clip-rule="evenodd" d="M30.3233 3.92225C30.9184 4.10079 31.2561 4.72796 31.0776 5.32307L23.6745 29.9998L31.0776 54.6765C31.2561 55.2717 30.9184 55.8988 30.3233 56.0774C29.7281 56.2559 29.101 55.9182 28.9224 55.3231L21.4224 30.3231C21.3592 30.1122 21.3592 29.8874 21.4224 29.6765L28.9224 4.67654C29.101 4.08142 29.7281 3.74372 30.3233 3.92225Z" fill="#333333"/>
<path fill-rule="evenodd" clip-rule="evenodd" d="M29.677 3.92225C30.2721 3.74372 30.8993 4.08142 31.0779 4.67654L38.5779 29.6765C38.6411 29.8874 38.6411 30.1122 38.5779 30.3231L31.0779 55.3231C30.8993 55.9182 30.2721 56.2559 29.677 56.0774C29.0819 55.8988 28.7442 55.2717 28.9227 54.6765L36.3258 29.9998L28.9227 5.32307C28.7442 4.72796 29.0819 4.10079 29.677 3.92225Z" fill="#333333"/>
</g>
<defs>
<clipPath id="clip0_65_17201">
<rect width="60" height="60" fill="white"/>
</clipPath>
</defs>
</svg>
