<svg width="60" height="60" viewBox="0 0 60 60" fill="none" xmlns="http://www.w3.org/2000/svg">
<g clip-path="url(#clip0_65_17183)">
<path d="M60 0H0V60H60V0Z" fill="white" fill-opacity="0.01"/>
<rect x="15" y="36.75" width="9.75" height="15" fill="#FFD401"/>
<rect x="35.25" y="7.5" width="9.75" height="21" fill="#FFD401"/>
<path fill-rule="evenodd" clip-rule="evenodd" d="M6.375 7.5C6.375 6.87868 6.87868 6.375 7.5 6.375H25C25.6213 6.375 26.125 6.87868 26.125 7.5V21.25C26.125 21.8713 25.6213 22.375 25 22.375H7.5C6.87868 22.375 6.375 21.8713 6.375 21.25V7.5ZM8.625 8.625V20.125H23.875V8.625H8.625Z" fill="#333333"/>
<path fill-rule="evenodd" clip-rule="evenodd" d="M33.875 38.75C33.875 38.1287 34.3787 37.625 35 37.625H52.5C53.1213 37.625 53.625 38.1287 53.625 38.75V52.5C53.625 53.1213 53.1213 53.625 52.5 53.625H35C34.3787 53.625 33.875 53.1213 33.875 52.5V38.75ZM36.125 39.875V51.375H51.375V39.875H36.125Z" fill="#333333"/>
<path fill-rule="evenodd" clip-rule="evenodd" d="M33.875 7.5C33.875 6.87868 34.3787 6.375 35 6.375H52.5C53.1213 6.375 53.625 6.87868 53.625 7.5V28.75C53.625 29.3713 53.1213 29.875 52.5 29.875H35C34.3787 29.875 33.875 29.3713 33.875 28.75V7.5ZM36.125 8.625V27.625H51.375V8.625H36.125Z" fill="#333333"/>
<path fill-rule="evenodd" clip-rule="evenodd" d="M6.375 31.25C6.375 30.6287 6.87868 30.125 7.5 30.125H25C25.6213 30.125 26.125 30.6287 26.125 31.25V52.5C26.125 53.1213 25.6213 53.625 25 53.625H7.5C6.87868 53.625 6.375 53.1213 6.375 52.5V31.25ZM8.625 32.375V51.375H23.875V32.375H8.625Z" fill="#333333"/>
</g>
<defs>
<clipPath id="clip0_65_17183">
<rect width="60" height="60" fill="white"/>
</clipPath>
</defs>
</svg>
