<svg width="236" height="123" viewBox="0 0 236 123" fill="none" xmlns="http://www.w3.org/2000/svg">
<path d="M21.1685 30.913C23.1391 29.399 25.4809 28.4118 27.9661 28.0692V5.46631L16.7422 8.36534V28.607C18.3414 29.1117 19.8414 29.8889 21.1685 30.913Z" fill="#1C1C1B"/>
<path d="M66.4945 8.36534V36.1879H42.9216C43.804 38.0556 44.3003 40.1368 44.3003 42.336C44.3003 42.336 44.3407 44.233 43.4032 47.1984H66.4945V82.2078H77.7184V5.46631L66.4945 8.36534Z" fill="#1C1C1B"/>
<path d="M26.8632 66.5047C25.2566 67.4035 23.7309 68.096 22.3302 68.5638L21.1722 68.9506L20.0141 68.5638C18.97 68.2139 17.8708 67.7461 16.7495 67.1825V82.2044H27.9735V65.79C27.6058 66.0295 27.2419 66.2652 26.8632 66.5047Z" fill="#1C1C1B"/>
<path d="M172.686 47.1984H186.495C186.34 46.097 186.256 44.9771 186.256 43.8352C186.256 41.1646 186.697 38.5934 187.502 36.1843H172.686V18.4512C180.09 17.2908 191.083 16.7125 200.222 16.7125C202.303 16.7125 204.27 16.7125 206.123 16.8267L207.858 5.5805C205.777 5.46631 203.693 5.46631 201.38 5.46631C188.421 5.46631 173.267 6.74085 161.466 9.05787V82.2041H204.737L206.704 70.9579H172.69V47.1984H172.686Z" fill="#1C1C1B"/>
<path d="M132.338 44.2993L116.603 34.2135C113.71 32.357 109.776 29.2295 109.776 25.288C109.776 18.6796 119.033 16.7088 124.121 16.7088C129.559 16.7088 138.816 19.0258 142.518 21.5786L143.558 10.104C138.698 7.66913 130.485 5.46631 124.121 5.46631C107.692 5.46631 97.9752 15.5521 98.0891 25.7522C98.0891 33.2889 102.949 38.8512 108.964 42.6785L125.857 53.4606C131.294 56.938 133.838 60.6474 133.838 64.0106C133.838 66.195 132.783 68.2062 130.893 69.6797C130.901 69.7792 130.908 69.8786 130.908 69.9781V82.9003C141.294 80.889 146.452 72.6413 146.452 63.7785C146.338 54.7351 139.279 48.705 132.338 44.2993Z" fill="#1C1C1B"/>
<path d="M90.2878 75.7247C95.6406 75.6584 106.471 75.5627 106.96 75.7247C106.688 71.5143 106.96 56.3303 106.96 52.9082C97.6075 53.5197 90.2878 59.4283 90.2878 71.0391V75.7247Z" fill="#FFD401"/>
<path d="M123.835 77.7249H89.2731C88.6187 77.7249 88.093 77.1945 88.093 76.5424V69.875C88.093 59.4209 96.3759 50.9116 106.556 50.9116C116.736 50.9116 125.018 59.4172 125.018 69.875V76.5424C125.015 77.1945 124.485 77.7249 123.835 77.7249ZM90.4532 75.3563H122.651V69.875C122.651 60.7249 115.43 53.2802 106.552 53.2802C97.6736 53.2802 90.4532 60.7249 90.4532 69.875V75.3563Z" fill="#1C1C1B"/>
<path d="M126.882 83.8325H86.2217C85.5673 83.8325 85.0416 83.3021 85.0416 82.6501V76.5389C85.0416 75.8832 85.571 75.3564 86.2217 75.3564H126.882C127.537 75.3564 128.062 75.8869 128.062 76.5389V82.6501C128.066 83.3058 127.537 83.8325 126.882 83.8325ZM87.4055 81.4676H125.702V77.725H87.4055V81.4676Z" fill="#1C1C1B"/>
<path d="M109.401 57.9658H103.302C102.648 57.9658 102.122 57.4353 102.122 56.7833V47.0033C102.122 46.3476 102.651 45.8208 103.302 45.8208H109.401C110.056 45.8208 110.581 46.3512 110.581 47.0033V56.7797C110.581 57.4353 110.052 57.9658 109.401 57.9658ZM104.482 55.5972H108.217V48.1857H104.482V55.5972Z" fill="#1C1C1B"/>
<path d="M224.755 61.3033C215.453 64.567 214.108 57.9106 214.494 55.2547C214.979 51.8658 219.126 46.3882 234.376 41.3379C234.372 41.3379 233.876 58.0985 224.755 61.3033ZM201.097 59.0157C207.465 59.7598 207.398 55.5273 206.788 53.9839C206.012 51.9652 202.626 49.1804 192.23 48.1453C192.23 48.149 194.851 58.2864 201.097 59.0157Z" fill="#FFD401"/>
<path d="M234.637 37.6615C234.534 37.5841 234.416 37.5289 234.291 37.5031C234.166 37.4773 234.034 37.481 233.912 37.5105C232.795 37.8162 220.291 42.1334 217.35 43.8795C212.475 46.7748 211.248 50.9852 210.946 52.6613C210.604 54.5437 210.707 58.7725 213.497 61.281C213.564 61.3437 213.637 61.3916 213.703 61.4505C213.045 62.9682 212.472 64.5227 211.987 66.1066C211.49 64.3753 210.884 62.6808 210.167 61.0306C209.652 59.8371 209.064 58.6767 208.402 57.5569C209.983 55.5898 209.685 52.8455 209.295 51.6483C208.435 49.0108 205.696 45.2756 191.903 43.3675C191.792 43.3527 191.682 43.3564 191.575 43.3859C191.469 43.4117 191.366 43.4632 191.278 43.5295C191.189 43.5958 191.116 43.6806 191.057 43.7763C191.002 43.8721 190.965 43.9789 190.947 44.0858C190.939 44.1521 190.939 44.2147 190.947 44.281C190.939 44.351 190.939 44.421 190.947 44.4873C191.031 45.0472 193.083 58.1278 201.226 59.4134C201.939 59.5313 202.66 59.5902 203.38 59.5939C204.689 59.6455 205.99 59.3287 207.13 58.6841C208.976 62.0657 210.314 65.7014 211.097 69.4735C210.255 73.0982 209.858 76.8113 209.92 80.5318H207.373C207.152 80.5318 206.939 80.6202 206.781 80.7786C206.623 80.937 206.534 81.1506 206.534 81.3717C206.534 81.5927 206.623 81.8063 206.781 81.9647C206.939 82.1231 207.152 82.2115 207.373 82.2115H217.637C217.858 82.2115 218.071 82.1231 218.229 81.9647C218.387 81.8063 218.475 81.5927 218.475 81.3717C218.475 81.1506 218.387 80.937 218.229 80.7786C218.071 80.6202 217.858 80.5318 217.637 80.5318H211.593C211.494 74.2954 212.703 68.1068 215.137 62.3677C216.299 62.9018 217.567 63.1634 218.847 63.1376C220.391 63.1118 221.92 62.8613 223.394 62.4009C234.471 59.1298 234.945 39.1607 234.96 38.3393C234.964 38.2103 234.938 38.0777 234.879 37.9599C234.824 37.842 234.74 37.7388 234.637 37.6615ZM201.498 57.7853C195.719 56.8422 193.406 48.1009 192.792 45.1909C206.09 47.2206 207.295 50.9263 207.685 52.1677C208.082 53.4349 207.983 54.8089 207.413 56.0097C205.321 52.9449 202.843 50.7753 200.086 49.6407C199.884 49.5707 199.663 49.5781 199.468 49.6665C199.274 49.7549 199.119 49.9133 199.038 50.1122C198.957 50.3111 198.954 50.5322 199.031 50.7311C199.108 50.93 199.259 51.0958 199.45 51.1878C202.314 52.3666 204.527 54.6652 206.226 57.2474C205.156 57.9068 203.571 58.08 201.498 57.7558V57.7853ZM222.891 60.8169C219.927 61.6936 217.564 61.6936 215.821 60.8501C218.475 55.2251 222.449 50.3259 227.405 46.5722C227.497 46.5059 227.574 46.4249 227.633 46.3291C227.692 46.2333 227.732 46.1265 227.751 46.016C227.769 45.9055 227.762 45.7913 227.736 45.6808C227.71 45.5703 227.659 45.4671 227.593 45.3787C227.527 45.2903 227.438 45.213 227.343 45.1577C227.243 45.1025 227.137 45.0656 227.027 45.0509C226.916 45.0361 226.802 45.0472 226.692 45.0767C226.582 45.1061 226.482 45.1614 226.398 45.2314C221.31 49.0808 217.207 54.0869 214.435 59.8407C212.527 57.9437 212.277 54.7094 212.593 52.9413C212.854 51.4936 213.92 47.8468 218.207 45.3051C220.523 43.9311 229.879 40.6047 233.232 39.4849C232.949 43.7579 231.376 58.2862 222.894 60.7874V60.8169H222.891Z" fill="#1C1C1B"/>
<path d="M6.29392 35.5141C13.5253 31.3995 18.7384 36.8328 20.4406 40.0671C21.8155 38.7483 24.2971 35.9893 28.069 35.5141C32.7858 34.921 36.5504 38.2842 37.5357 42.2404C38.3224 45.4084 35.9659 51.7406 33.8042 54.3118L32.624 55.1037L26.7272 46.1967L21.617 55.1037L15.3304 46.2004C13.6283 48.3111 9.79014 53.0483 8.06225 55.1037C6.29392 54.3118 -2.74258 40.6565 6.29392 35.5141Z" fill="#FFD401"/>
<path d="M8.52553 56.1279C8.28656 56.1279 8.04392 56.0505 7.83805 55.8921C7.34909 55.5127 7.26453 54.8091 7.6432 54.3192L14.4518 45.5484C14.6724 45.2648 15.0217 45.1064 15.3746 45.1175C15.7349 45.1322 16.0658 45.3164 16.2643 45.6147L21.1685 52.9857L26.0728 45.6147C26.2787 45.3016 26.6316 45.1138 27.0029 45.1138C27.0066 45.1138 27.014 45.1138 27.0176 45.1138C27.3963 45.1175 27.7492 45.3164 27.9514 45.6405L32.4881 52.9121H40.6202C41.2378 52.9121 41.7378 53.413 41.7378 54.0319C41.7378 54.6507 41.2378 55.1517 40.6202 55.1517H31.8704C31.4844 55.1517 31.1278 54.9528 30.9219 54.625L26.9772 48.3001L22.1023 55.6269C21.8965 55.94 21.5472 56.1279 21.1722 56.1279C20.7972 56.1279 20.448 55.94 20.2421 55.6269L15.268 48.1491L9.41153 55.6932C9.18727 55.9769 8.8564 56.1279 8.52553 56.1279Z" fill="#1C1C1B"/>
<path d="M21.1685 66.1914C21.0509 66.1914 20.9296 66.173 20.8156 66.1325C16.8782 64.8211 11.882 61.4948 8.09169 57.6601C4.67267 54.1975 0.595581 48.7309 0.595581 42.3361C0.595581 35.805 5.8969 30.4932 12.4151 30.4932C15.7643 30.4932 18.9443 31.9224 21.1685 34.3794C23.3964 31.9224 26.5728 30.4932 29.9219 30.4932C36.4401 30.4932 41.7415 35.805 41.7415 42.3361C41.7415 42.955 41.2415 43.4559 40.6238 43.4559C40.0062 43.4559 39.5062 42.955 39.5062 42.3361C39.5062 37.0427 35.2086 32.7365 29.9256 32.7365C26.8117 32.7365 23.8817 34.2615 22.0876 36.818C21.8781 37.1164 21.5362 37.2932 21.1722 37.2932C20.8082 37.2932 20.4663 37.1164 20.2568 36.818C18.4627 34.2615 15.529 32.7365 12.4188 32.7365C7.13583 32.7365 2.83816 37.0427 2.83816 42.3361C2.83816 47.9721 6.56232 52.9229 9.68723 56.0835C13.8342 60.2792 18.3745 62.8688 21.1722 63.8818C22.1905 63.5134 23.3412 62.9756 24.525 62.3088C25.0655 62.0068 25.7456 62.202 26.0471 62.7398C26.3485 63.2813 26.1573 63.9628 25.6169 64.2649C24.15 65.0863 22.7751 65.7125 21.5251 66.1288C21.4075 66.1693 21.2898 66.1914 21.1685 66.1914Z" fill="#1C1C1B"/>
<path d="M25.976 109.912C25.944 107.416 23.992 105.752 22.072 104.536L17.72 101.752C16.92 101.24 15.832 100.376 15.832 99.288C15.832 97.464 18.392 96.92 19.8 96.92C21.304 96.92 23.864 97.56 24.888 98.264L25.176 95.096C23.832 94.424 21.56 93.816 19.8 93.816C15.256 93.816 12.568 96.6 12.6 99.416C12.6 101.496 13.944 103.032 15.608 104.088L20.28 107.064C21.784 108.024 22.488 109.048 22.488 109.976C22.488 111.192 21.304 112.216 19.416 112.216C17.112 112.216 15.064 111.544 13.272 110.648L13.752 114.2C15.576 114.968 17.88 115.32 20.28 115.32C24.088 115.32 25.976 112.728 25.976 109.912ZM38.1545 105.144C38.1545 105.816 37.8985 106.328 37.0345 106.36L32.0745 106.584C32.2345 104.792 33.3865 103.16 35.4985 103.16C37.1305 103.16 38.1545 104.248 38.1545 105.144ZM41.0345 106.104C41.0345 103.16 39.3385 100.376 35.3065 100.376C32.2665 100.376 28.9385 103.192 28.9385 107.8C28.9385 110.296 29.5465 112.184 30.9225 113.464C32.2345 114.712 34.2825 115.32 37.2905 115.32C38.0905 115.32 38.8585 115.224 39.6905 115.16L39.9465 112.44C39.3065 112.504 38.6985 112.568 38.1545 112.568C35.5625 112.568 32.1705 112.44 32.0425 109.144L38.5705 108.792C39.8505 108.728 41.0345 107.736 41.0345 106.104ZM47.6505 115V93.816L44.7385 94.616V115H47.6505ZM59.5405 93.816C56.3405 94.04 54.0685 95.096 51.9885 97.528V115H54.9005V103.736H58.0365L59.3485 100.92H54.9005V98.616C55.9885 97.56 57.3325 96.824 58.8365 96.696L59.5405 93.816ZM84.6158 115L77.6718 93.816H76.5518C74.9838 93.816 73.5118 94.712 72.8398 96.664L66.5038 115H69.7678L72.0718 108.344H79.1758L81.3518 115H84.6158ZM78.1838 105.336H73.0958L75.7198 97.784L78.1838 105.336ZM96.0133 111.096C96.0133 109.592 95.3413 108.12 93.9013 107.384L90.7973 105.816C90.2213 105.528 89.1653 104.888 89.1973 104.12C89.2293 103.544 89.9653 103.096 91.4693 103.096C92.4293 103.096 93.7093 103.256 94.9893 104.088L95.3733 101.464C94.2853 100.696 92.1093 100.376 90.7973 100.376C87.5653 100.376 86.1573 102.104 86.1573 103.896C86.1573 105.624 87.0853 107.096 88.7173 107.928L92.0133 109.656C92.7493 110.04 93.0693 110.552 93.0693 111.032C93.0693 112.184 92.3013 112.504 91.2453 112.504C89.7733 112.504 87.7893 112.024 86.4773 111.16L86.8293 114.424C88.2373 115.064 89.4852 115.32 91.1813 115.32C93.8053 115.32 95.9813 113.912 96.0133 111.096ZM108.607 111.096C108.607 109.592 107.935 108.12 106.495 107.384L103.391 105.816C102.815 105.528 101.759 104.888 101.791 104.12C101.823 103.544 102.559 103.096 104.063 103.096C105.023 103.096 106.303 103.256 107.583 104.088L107.967 101.464C106.879 100.696 104.703 100.376 103.391 100.376C100.159 100.376 98.751 102.104 98.751 103.896C98.751 105.624 99.679 107.096 101.311 107.928L104.607 109.656C105.343 110.04 105.663 110.552 105.663 111.032C105.663 112.184 104.895 112.504 103.839 112.504C102.367 112.504 100.383 112.024 99.071 111.16L99.423 114.424C100.831 115.064 102.079 115.32 103.775 115.32C106.399 115.32 108.575 113.912 108.607 111.096ZM120.561 105.144C120.561 105.816 120.305 106.328 119.441 106.36L114.481 106.584C114.641 104.792 115.793 103.16 117.905 103.16C119.537 103.16 120.561 104.248 120.561 105.144ZM123.441 106.104C123.441 103.16 121.745 100.376 117.713 100.376C114.673 100.376 111.345 103.192 111.345 107.8C111.345 110.296 111.953 112.184 113.329 113.464C114.641 114.712 116.689 115.32 119.697 115.32C120.497 115.32 121.265 115.224 122.097 115.16L122.353 112.44C121.713 112.504 121.105 112.568 120.561 112.568C117.969 112.568 114.577 112.44 114.449 109.144L120.977 108.792C122.257 108.728 123.441 107.736 123.441 106.104ZM136.201 111.096C136.201 109.592 135.529 108.12 134.089 107.384L130.985 105.816C130.409 105.528 129.353 104.888 129.385 104.12C129.417 103.544 130.153 103.096 131.657 103.096C132.617 103.096 133.897 103.256 135.177 104.088L135.561 101.464C134.473 100.696 132.297 100.376 130.985 100.376C127.753 100.376 126.345 102.104 126.345 103.896C126.345 105.624 127.273 107.096 128.905 107.928L132.201 109.656C132.937 110.04 133.257 110.552 133.257 111.032C133.257 112.184 132.489 112.504 131.433 112.504C129.961 112.504 127.977 112.024 126.665 111.16L127.017 114.424C128.425 115.064 129.673 115.32 131.369 115.32C133.993 115.32 136.169 113.912 136.201 111.096ZM148.795 111.096C148.795 109.592 148.123 108.12 146.683 107.384L143.579 105.816C143.003 105.528 141.947 104.888 141.979 104.12C142.011 103.544 142.747 103.096 144.251 103.096C145.211 103.096 146.491 103.256 147.771 104.088L148.155 101.464C147.067 100.696 144.891 100.376 143.579 100.376C140.347 100.376 138.939 102.104 138.939 103.896C138.939 105.624 139.867 107.096 141.499 107.928L144.795 109.656C145.531 110.04 145.851 110.552 145.851 111.032C145.851 112.184 145.083 112.504 144.027 112.504C142.555 112.504 140.571 112.024 139.259 111.16L139.611 114.424C141.019 115.064 142.266 115.32 143.963 115.32C146.587 115.32 148.763 113.912 148.795 111.096ZM172.524 115V105.432C172.524 102.488 171.628 100.376 167.916 100.376C166.092 100.376 164.076 101.24 163.052 102.168C162.284 101.016 161.068 100.376 159.308 100.376C156.588 100.376 154.252 101.976 152.332 103.704V115H155.244V104.952C156.396 103.864 157.932 103.224 159.308 103.224C160.46 103.224 161.004 103.64 161.004 105.4V115H163.916V105.368V104.92C165.068 103.864 166.572 103.224 167.916 103.224C169.068 103.224 169.612 103.64 169.612 105.4V115H172.524ZM185.28 105.144C185.28 105.816 185.024 106.328 184.16 106.36L179.2 106.584C179.36 104.792 180.512 103.16 182.624 103.16C184.256 103.16 185.28 104.248 185.28 105.144ZM188.16 106.104C188.16 103.16 186.464 100.376 182.432 100.376C179.391 100.376 176.064 103.192 176.064 107.8C176.064 110.296 176.672 112.184 178.048 113.464C179.36 114.712 181.408 115.32 184.416 115.32C185.216 115.32 185.984 115.224 186.816 115.16L187.072 112.44C186.432 112.504 185.824 112.568 185.28 112.568C182.688 112.568 179.296 112.44 179.168 109.144L185.696 108.792C186.976 108.728 188.16 107.736 188.16 106.104ZM203.928 115V105.24C203.928 102.36 202.68 100.376 199.32 100.376C196.6 100.376 193.784 101.976 191.864 103.704V115H194.776V104.952C195.928 104.024 197.88 103.224 199.16 103.224C200.216 103.224 201.016 103.864 201.016 105.336V115H203.928ZM214.862 100.92H211.182V96.824L208.27 97.624V111.512C208.27 114.264 210.222 115.32 212.334 115.32C212.846 115.32 213.39 115.256 213.902 115.16L213.294 112.312C213.006 112.408 212.654 112.472 212.302 112.472C211.662 112.472 211.182 112.248 211.182 111.512V103.736H213.55L214.862 100.92Z" fill="#1C1C1B"/>
</svg>
