<svg width="24" height="25" viewBox="0 0 24 25" fill="none" xmlns="http://www.w3.org/2000/svg">
<g clip-path="url(#clip0_65_19303)">
<path d="M24 0.5H0V24.5H24V0.5Z" fill="white" fill-opacity="0.01"/>
<path d="M2.5 10H21.5V20.5C21.5 21.0523 21.0523 21.5 20.5 21.5H3.5C2.94771 21.5 2.5 21.0523 2.5 20.5V10Z" stroke="#1C1C1B" stroke-linejoin="round"/>
<path d="M2.5 5C2.5 4.44771 2.94771 4 3.5 4H20.5C21.0523 4 21.5 4.44771 21.5 5V10H2.5V5Z" stroke="#1C1C1B" stroke-linejoin="round"/>
<path d="M8 2.5V6.5" stroke="#1C1C1B" stroke-linecap="round" stroke-linejoin="round"/>
<path d="M16 2.5V6.5" stroke="#1C1C1B" stroke-linecap="round" stroke-linejoin="round"/>
<path d="M14 17.5H17" stroke="#1C1C1B" stroke-linecap="round" stroke-linejoin="round"/>
<path d="M7 17.5H10" stroke="#1C1C1B" stroke-linecap="round" stroke-linejoin="round"/>
<path d="M14 13.5H17" stroke="#1C1C1B" stroke-linecap="round" stroke-linejoin="round"/>
<path d="M7 13.5H10" stroke="#1C1C1B" stroke-linecap="round" stroke-linejoin="round"/>
</g>
<defs>
<clipPath id="clip0_65_19303">
<rect width="24" height="24" fill="white" transform="translate(0 0.5)"/>
</clipPath>
</defs>
</svg>
